<svg height="511pt" viewBox="0 0 511.99377 511" width="511pt" xmlns="http://www.w3.org/2000/svg"><path d="m456.824219 141.496094c-.007813-.703125.113281-1.324219.160156-1.992188-2.753906-.46875-5.582031-.839844-8.519531-1h.007812c4.351563-5.886718 7.105469-12.507812 8.652344-19.347656-.414062-.503906-.875-.917969-1.273438-1.476562-8.253906-11.75-15.277343-19.535157-27.910156-26.632813-12.324218-6.917969-25.019531-12.800781-36.316406-21.414063-3.65625-2.789062-6.535156-6.367187-8.226562-10.3125-3.257813 1.484376-6.402344 3.300782-9.351563 5.527344v.007813c-.253906-5.726563-1.164063-11.058594-2.503906-16.082031-.117188.078124-.214844.183593-.328125.253906-9.382813 6.046875-21.425782 1.511718-27.171875-7.121094-.496094-.734375-.980469-1.476562-1.472657-2.207031-2.984374-4.484375-3.390624-9.695313-2.066406-14.515625-2.886718-1.023438-5.816406-1.957032-8.800781-2.742188-.917969.953125-1.941406 1.789063-3.039063 2.550782-5.550781 17.195312-25 34.410156-44.261718 48.542968.9375.597656 1.898437 1.347656 2.898437 2.347656 2.292969 2.292969 3.707031 4.828126 4.542969 7.511719 2.066406 2.1875 3.734375 5.003907 4.644531 8.667969 8.105469 32.867188 5.246094 79.527344 43.015625 92.8125 23.605469 8.300781 51.5625 9.058594 67.53125 30.449219 1.46875 1.957031 2.351563 3.898437 2.957032 5.808593 9.429687-1.105468 19.546874-3.003906 27.121093 4.5625 11.238281 11.238282-4.492187 17.992188-10.78125 29.679688 8.980469 7.085938 17.558594 15.109375 27.101563 18.996094.441406-1.085938.972656-2.15625 1.695312-3.132813 11.273438-15.46875 24.824219-28.875 39.566406-40.890625-22.238281-24.382812-37.28125-55.660156-37.871093-88.851562zm0 0" fill="#23a24d"/><path d="m364.648438 209.257812c-28.425782-5.597656-11.546876-50.105468-11.546876-50.105468s-44.042968 20.234375-48.660156-7.027344c-5.472656-1.660156-11.570312-3.6875-18.40625-6.699219-11.5-4-24.078125-5.421875-36.808594-.847656-39.945312 14.355469-215.597656 267.085937-248.445312 355.195313-3.089844 8.289062 3.417969 14.785156 11.699219 11.695312 88.117187-32.855469 342.234375-207.101562 356.589843-247.046875 3.714844-10.347656 3.484376-20.605469 1.164063-30.261719-2.628906-9.699218-4.070313-17.945312-5.585937-24.902344zm0 0" fill="#dc691d"/><path d="m455.828125 182.015625c24.433594 8.007813 39.148437 24.082031 45.972656 41.191406 2.472657-3.003906 4.855469-6.84375 7.140625-11.6875 12.976563-27.492187-16.171875-78.328125-73.4375-72.828125-32.660156 3.132813-76.234375 29.703125-103.28125 53.972656 34.296875-12.890624 90.121094-21.628906 123.605469-10.648437zm0 0" fill="#1a823a"/><path d="m330.988281 57.175781c10.785157 32.910157 2.523438 87.332031-9.984375 121.75 23.949219-27.125 49.714844-69.800781 52.796875-101.941406 5.5-57.273437-45.339843-86.414063-72.828125-73.4375-4.996094 2.359375-8.925781 4.820313-11.960937 7.382813 17.398437 6.671874 33.84375 21.441406 41.976562 46.246093zm0 0" fill="#1a823a"/><path d="m435.503906 138.679688c4.53125-.429688 8.804688-.40625 12.96875-.175782 15.316406-20.726562 13.648438-50.070312-5.128906-68.84375-18.90625-18.910156-48.542969-20.480468-69.296875-4.804687.179687 3.902343.160156 7.917969-.246094 12.128906-3.082031 32.132813-28.832031 74.734375-52.769531 101.84375-4.671875 12.878906-9.921875 23.050781-15.015625 28.152344 4.851563-4.855469 14.28125-9.859375 26.296875-14.363281 27.046875-24.257813 70.539062-50.800782 103.191406-53.9375zm0 0" fill="#126329"/><path d="m393.40625 219.460938c-31.214844-18.722657-87.382812-12.480469-87.382812-12.480469 18.722656-18.722657 104.632812-39.777344 149.8125-24.964844 54.667968 17.929687 60.988281 76.183594 38.082031 96.167969-23.730469 20.699218-46.222657 20.53125-56.804688 9.949218-37.457031-37.457031 18.722657-43.695312 0-62.421874-12.492187-12.488282-31.949219.8125-43.707031-6.25zm0 0" fill="#126329"/><path d="m293.539062 119.597656c18.726563 31.210938 12.484376 87.382813 12.484376 87.382813 18.722656-18.722657 39.777343-104.632813 24.964843-149.8125-17.929687-54.667969-76.183593-60.992188-96.167969-38.082031-20.703124 23.726562-20.535156 46.21875-9.949218 56.804687 37.457031 37.457031 43.695312-18.722656 62.417968 0 12.492188 12.492187-.8125 31.945313 6.25 43.707031zm0 0" fill="#23a24d"/><g fill="#c5411e"><path d="m209.140625 292.226562c-2.808594-3.980468-8.308594-4.925781-12.304687-2.125-3.984376 2.804688-4.9375 8.316407-2.128907 12.304688 8.835938 12.535156 47.128907 39.027344 74.300781 52.136719 5.5-4.0625 10.902344-8.085938 16.109376-12.03125-21.050782-8.253907-67.574219-38.355469-75.976563-50.285157zm0 0"/><path d="m204.3125 186.507812c-3.804688 4.441407-7.742188 9.164063-11.804688 14.125 19.589844 29.132813 51.414063 65.386719 61.433594 72.449219 1.542969 1.085938 3.316406 1.613281 5.074219 1.613281 2.773437 0 5.507813-1.296874 7.222656-3.742187 2.804688-3.980469 1.851563-9.488281-2.128906-12.304687-11.335937-7.996094-43.28125-47-59.796875-72.140626zm0 0"/><path d="m142.464844 329.472656c1.546875 1.085938 3.320312 1.613282 5.078125 1.613282 2.769531 0 5.496093-1.296876 7.21875-3.742188 2.808593-3.980469 1.855469-9.488281-2.128907-12.304688-4.625-3.257812-13.082031-23.410156-17.511718-38.621093-4.210938 5.898437-8.421875 11.847656-12.632813 17.886719 5.253907 14.617187 12.554688 29.933593 19.976563 35.167968zm0 0"/><path d="m113.96875 367.820312c-2.804688-3.984374-8.316406-4.9375-12.304688-2.128906-3.980468 2.808594-4.933593 8.316406-2.128906 12.304688 5.09375 7.222656 36.988282 34.78125 61.089844 51.164062 5.3125-3.414062 10.636719-6.890625 15.957031-10.386718-19.402343-12.5-56.980469-42.964844-62.613281-50.953126zm0 0"/><path d="m48.371094 413.777344c9.03125 18.457031 12.976562 25.6875 18.644531 28.398437 1.226563.582031 2.523437.863281 3.804687.863281 3.292969 0 6.453126-1.855468 7.972657-5.015624 1.957031-4.09375.476562-8.949219-3.285157-11.296876-2.445312-2.667968-7.945312-13.90625-11.273437-20.703124-2.636719-5.382813-4.75-9.621094-6.585937-13.035157-3.6875 6.011719-7.28125 11.941407-10.757813 17.757813.519531 1.050781 1.023437 2.085937 1.480469 3.03125zm0 0"/></g></svg>