<svg height="512pt" viewBox="0 0 512 512.00377" width="512pt" xmlns="http://www.w3.org/2000/svg"><path d="m323.941406 252.449219-64.398437-64.398438c-.007813-66.941406 26.277343-206.796875 99.246093-176.066406 38.765626 16.328125 8.890626 86.257813 8.046876 88.222656 1.621093-2.246093 73.621093-101.671875 110.121093-65.171875 36.492188 36.496094-62.929687 108.492188-65.175781 110.113282 1.964844-.84375 71.890625-30.714844 88.21875 8.046874 30.734375 72.96875-109.121094 99.253907-176.058594 99.253907zm0 0" fill="#67c1b0"/><path d="m285.058594 368.140625c-27.898438 27.898437-81.683594 64.011719-134.421875 92.039063-13.464844 7.160156-26.871094 13.792968-39.75 19.628906-46.296875 20.972656-85.945313 31.636718-98.140625 19.441406-20.445313-20.445312 23.316406-117.9375 72.140625-194.683594 7.945312-12.484375 16.023437-24.433594 23.984375-35.394531 12.261718-16.894531 24.222656-31.492187 34.976562-42.242187 60.644532-60.644532 100.570313-62.058594 151.921875-10.703126 41.582031 41.578126 48.5625 75.664063 17.5 119.335938-7.140625 10.046875-16.296875 20.597656-27.511719 31.863281-.226562.238281-.464843.480469-.699218.714844zm0 0" fill="#ff9216"/><path d="m12.746094 499.25c-20.445313-20.445312 23.316406-117.9375 72.140625-194.683594 7.945312-12.484375 16.023437-24.433594 23.984375-35.394531 12.261718-16.894531 24.222656-31.492187 34.976562-42.242187 60.644532-60.644532 100.570313-62.058594 151.921875-10.703126-24.785156-24.789062-54.746093-13.410156-115.390625 47.234376-10.75 10.753906-23.394531 24.664062-36.851562 40.367187-8.738282 10.183594-17.820313 21.125-26.9375 32.441406-56.046875 69.527344-113.714844 153.109375-103.84375 162.980469zm0 0" fill="#e8590c"/><path d="m357.722656 139.296875s3.652344-59.382813-39.050781-59.382813c-41.773437 0-42.6875 119.332032-42.703125 124.5625l-16.425781-16.425781c-.007813-66.941406 26.277343-206.796875 99.25-176.066406 38.761719 16.328125 8.886719 86.257813 8.046875 88.222656 1.621094-2.246093 73.617187-101.671875 110.117187-65.171875-16.046875-16.046875-119.234375 104.261719-119.234375 104.261719zm0 0" fill="#51a2af"/><path d="m507.011719 150.246094c-4.097657-9.726563-11.21875-16.679688-21.171875-20.65625-12.195313-4.875-27.09375-4.417969-40.542969-2.132813 2.34375-2.136719 4.734375-4.375 7.136719-6.703125 25.113281-24.316406 38.582031-45.644531 40.03125-63.390625.882812-10.777343-2.527344-20.097656-10.132813-27.703125-7.609375-7.609375-16.933593-11.023437-27.707031-10.136718-17.742188 1.449218-39.070312 14.921874-63.390625 40.03125-2.328125 2.40625-4.566406 4.796874-6.699219 7.136718 2.28125-13.445312 2.738282-28.347656-2.132812-40.539062-3.980469-9.953125-10.929688-17.078125-20.660156-21.175782-17.445313-7.347656-33.738282-6.554687-48.425782 2.359376-12.21875 7.417968-23.046875 20.488281-32.183594 38.847656-1.871093 3.761718-.339843 8.324218 3.417969 10.195312 3.757813 1.871094 8.324219.339844 10.199219-3.417968 16.527344-33.210938 36.507812-44.324219 61.089844-33.96875 5.917968 2.492187 9.984375 6.675781 12.433594 12.789062 3.8125 9.519531 3.648437 23.671875-.480469 40.925781-3.273438 13.679688-7.902344 24.394531-7.949219 24.5-1.554688 3.5625-.167969 7.726563 3.214844 9.652344 3.382812 1.921875 7.667968.980469 9.933594-2.179687 13.394531-18.679688 54.394531-67.671876 82.875-70 6.292968-.515626 11.285156 1.308593 15.710937 5.734374 4.425781 4.421876 6.246094 9.414063 5.734375 15.707032-2.324219 28.441406-51.320312 69.46875-70 82.878906-3.160156 2.265625-4.097656 6.546875-2.179688 9.929688 1.921876 3.378906 6.082032 4.769531 9.648438 3.21875.105469-.046876 10.824219-4.679688 24.5-7.949219 17.253906-4.128907 31.410156-4.292969 40.929688-.480469 6.113281 2.445312 10.292968 6.515625 12.789062 12.433594 5.664062 13.449218 4.925781 25.242187-2.25 36.054687-10.851562 16.34375-36.078125 30.195313-72.949219 40.050781-32.550781 8.703126-66.699219 12.15625-89.46875 12.550782-6.378906-10.933594-15.390625-22.164063-27.1875-33.960938s-23.023437-20.808594-33.957031-27.183594c.476562-27.894531 5.445312-71.234374 18.273438-108.273437 1.375-3.964844-.730469-8.296875-4.695313-9.671875-3.96875-1.375-8.300781.730469-9.675781 4.699219-12.378906 35.75-17.765625 77.050781-18.914063 106.074219-9.859375-3.644532-19.578125-5.117188-29.363281-4.5-25.328125 1.601562-52.128906 17.347656-84.339844 49.558593-29.773437 29.773438-70.175781 90.058594-100.53125 150.011719-15.382812 30.371094-26.707031 57.839844-32.75 79.429688-7.574218 27.054687-6.863281 44.597656 2.175782 53.636718 4.925781 4.925782 12.316406 7.375 22.386718 7.375 5.605469 0 12.042969-.761718 19.339844-2.273437 16.402344-3.40625 36.890625-10.53125 60.898438-21.183594 44.183593-19.601563 96.527343-49.785156 136.597656-78.765625 3.402344-2.460938 4.167968-7.214844 1.707031-10.617188-2.460937-3.402343-7.214844-4.164062-10.617187-1.703124-39.277344 28.40625-90.566407 57.980468-133.855469 77.1875-70.648438 31.339843-84.375 20.558593-85.707031 19.226562-6.269532-6.269531-3.328126-31.839844 14.707031-75.179688l18.835937 18.835938c1.484375 1.484375 3.429688 2.226562 5.375 2.226562 1.945313 0 3.890625-.742187 5.375-2.226562 2.96875-2.972656 2.96875-7.785156 0-10.753906l-23.058594-23.0625c3.601563-7.9375 7.636719-16.355469 12.15625-25.28125 29.699219-58.65625 68.972657-117.378906 97.71875-146.128906 29.441407-29.4375 53.128907-43.78125 74.546876-45.132813 20.925781-1.320313 41.480468 9.292969 66.617187 34.429687 25.136719 25.136719 35.757813 45.683594 34.433594 66.621094-.546875 8.644532-3.210938 17.65625-8.125 27.265625l-31.714844-31.710937c-2.96875-2.96875-7.78125-2.96875-10.75 0-2.972656 2.96875-2.972656 7.78125 0 10.75l34.394531 34.398437c-7.164062 10.460938-16.753906 21.65625-28.9375 33.84375-5.171875 5.167969-11.417968 10.777344-18.566406 16.671875-3.242188 2.671875-3.703125 7.464844-1.03125 10.703125 2.671875 3.242188 7.464844 3.703125 10.703125 1.03125 7.523437-6.203125 14.132813-12.144531 19.648437-17.65625 32.207032-32.210937 47.957032-59.007812 49.558594-84.339843.617188-9.777344-.855468-19.492188-4.496094-29.351563 55.355469-2.085937 141.117188-18.84375 167.914063-59.210937 10.070313-15.171876 11.277344-32.121094 3.589844-50.371094zm0 0"/><path d="m167.785156 274.089844c-2.972656 2.96875-2.972656 7.785156 0 10.753906l31.179688 31.183594c1.484375 1.484375 3.429687 2.226562 5.375 2.226562 1.945312 0 3.894531-.742187 5.378906-2.226562 2.96875-2.972656 2.96875-7.785156 0-10.753906l-31.183594-31.183594c-2.964844-2.96875-7.78125-2.96875-10.75 0zm0 0"/><path d="m110.796875 386.992188c-2.96875 2.96875-2.96875 7.785156 0 10.75l31.179687 31.183593c1.484376 1.484375 3.433594 2.226563 5.378907 2.226563 1.945312 0 3.890625-.742188 5.375-2.226563 2.96875-2.96875 2.96875-7.78125 0-10.75l-31.183594-31.183593c-2.96875-2.972657-7.78125-2.972657-10.75 0zm0 0"/></svg>