<svg viewBox="1 -32 511.99999 511" xmlns="http://www.w3.org/2000/svg"><path d="m256 322.953125c49.613281 0 147.144531-14.222656 192.035156-21.207031 13.972656-2.175782 27.65625 5.300781 33.382813 18.234375l17.859375 40.320312c7.378906 16.664063-.988282 36.074219-18.175782 42.140625-39.746093 14.027344-114.066406 34.921875-204.058593 34.921875h-42.085938c-89.992187 0-164.3125-20.894531-204.058593-34.921875-17.1875-6.066406-25.554688-25.480468-18.175782-42.140625l17.855469-40.320312c5.730469-12.933594 19.410156-20.410157 33.386719-18.234375 44.890625 6.984375 142.421875 21.207031 192.035156 21.207031" fill="#fff"/><path d="m404.457031 112.980469c-22.21875-14.164063-47.214843-25.796875-63.722656-20.414063-30.792969 10.042969 7.726563 142.347656 112.289063 208.804688 0 0-156.742188 20.957031-181.363282 21.203125-24.625.242187-75.105468-3.183594-90.085937-4.890625-14.980469-1.707032-117.609375-15.9375-117.609375-15.9375s37.199218-272.019532 170.085937-289.53125c89.355469-11.777344 159.644531 37.550781 199.554688 76.457031" fill="#ff5b5b"/><path d="m501.367188 137.464844c0 28.429687-23.046876 51.472656-51.476563 51.472656-28.425781 0-51.472656-23.042969-51.472656-51.472656 0-28.429688 23.046875-51.472656 51.472656-51.472656 28.429687 0 51.476563 23.042968 51.476563 51.472656zm0 0" fill="#ffde55"/><path d="m508.46875 356.585938-17.855469-40.320313c-6.140625-13.859375-19.273437-23-33.871093-24.402344-82.910157-53.714843-119.9375-147.832031-115.6875-181.53125.640624-5.074219 2.101562-7.363281 2.875-7.613281 5.640624-1.835938 19.105468-2.082031 47.632812 14.789062-2.222656 6.367188-3.445312 13.199219-3.445312 20.316407 0 34.0625 27.710937 61.773437 61.773437 61.773437s61.777344-27.710937 61.777344-61.773437-27.714844-61.773438-61.777344-61.773438c-4.605469 0-9.085937.519531-13.402344 1.480469-24.890625-23.472656-51.699219-41.988281-79.765625-55.074219-40.441406-18.847656-82.167968-25.613281-124.019531-20.097656-33.050781 4.355469-63.121094 23.347656-89.363281 56.441406-20.296875 25.59375-38.40625 59.757813-53.828125 101.539063-20.835938 56.441406-30.984375 110.734375-34.398438 131.539062-14.539062 1.445313-27.609375 10.570313-33.726562 24.386719l-6.808594 15.371094c-.878906 1.207031-1.496094 2.585937-1.789063 4.042969l-9.257812 20.90625c-4.652344 10.5-4.710938 22.570312-.160156 33.109374 4.542968 10.535157 13.359375 18.769532 24.179687 22.585938 37.570313 13.257812 114.46875 35.5 207.410157 35.5h42.082031c92.9375 0 169.839843-22.242188 207.40625-35.5 10.824219-3.816406 19.636719-12.050781 24.183593-22.585938 4.546876-10.539062 4.488282-22.609374-.164062-33.109374zm-17.40625-218.761719c0 22.703125-18.46875 41.171875-41.171875 41.171875s-41.171875-18.46875-41.171875-41.171875c0-17.964844 11.574219-33.269531 27.652344-38.878907.417968-.117187.832031-.25 1.234375-.421874 3.882812-1.214844 8.007812-1.871094 12.289062-1.871094 22.699219 0 41.167969 18.46875 41.167969 41.171875zm-382.222656 29.648437c14.664062-39.730468 31.703125-71.984375 50.644531-95.871094 22.804687-28.757812 48.34375-45.183593 75.914063-48.816406 77.082031-10.164062 139.125 26.808594 180.304687 63.621094-5.382813 3.585938-10.160156 8.003906-14.175781 13.050781-27.347656-16.085937-48.34375-21.429687-63.984375-16.328125-5.382813 1.757813-14.738281 7.289063-16.925781 24.621094-5.300782 42.011719 32.945312 130.429688 105.070312 187.199219-56.820312 7.425781-137.863281 17.519531-154.132812 17.679687-23.414063.238282-73.25-3.050781-88.8125-4.820312-11.863282-1.351563-80.496094-10.8125-106.964844-14.46875 3.613281-21.34375 13.625-73.210938 33.0625-125.867188zm381.324218 214.253906c-2.367187 5.488282-6.773437 9.601563-12.40625 11.589844-36.355468 12.832032-110.773437 34.351563-200.71875 34.351563h-42.082031c-89.941406 0-164.359375-21.519531-200.714843-34.351563-5.632813-1.988281-10.039063-6.101562-12.40625-11.589844-2.371094-5.488281-2.339844-11.523437.082031-16.996093l4.496093-10.152344c11.878907 7.277344 34.113282 15.4375 75.707032 19.769531.363281.039063.722656.058594 1.078125.058594 5.210937 0 9.683593-3.9375 10.234375-9.234375.589844-5.660156-3.519532-10.726563-9.179688-11.3125-45.472656-4.738281-63.171875-13.886719-69.367187-18.410156l4.886719-11.035157c3.433593-7.75 11.117187-12.621093 19.394531-12.621093.480469 0 .964843.019531 1.453125.054687.617187.210938 1.257812.371094 1.929687.464844 1 .136719 7.382813 1.023438 16.71875 2.3125 24.5 3.691406 54.757813 7.988281 84.578125 11.535156 7.757813 1.027344 13.699219 1.796875 16.5625 2.121094 3.882813.441406 9.878906.980469 17.078125 1.542969 22.167969 2.15625 42.640625 3.550781 58.511719 3.550781 2.984375 0 26.867188-.71875 36.101562-1.605469 40.542969-3.042969 91.53125-9.875 130.976563-15.703125 17.386719-2.261718 29.582031-3.890625 31.308594-4.121094.121093-.015624.234375-.039062.351562-.0625 7.527344.6875 14.320313 5.386719 17.488281 12.53125l17.855469 40.320313c2.421875 5.46875 2.449219 11.503906.082031 16.992187zm0 0"/><path d="m130 360.011719-.292969.191406c-4.652343 3.035156-5.964843 9.265625-2.929687 13.917969 1.929687 2.957031 5.148437 4.5625 8.433594 4.5625 1.882812 0 3.789062-.527344 5.484374-1.632813l.296876-.191406c4.648437-3.035156 5.960937-9.265625 2.925781-13.917969-3.03125-4.652344-9.261719-5.964844-13.917969-2.929687zm0 0"/><path d="m192.566406 90.566406c23.847656-39.273437 62.398438-34.835937 64.101563-34.617187 5.476562.742187 10.535156-3.089844 11.300781-8.574219.769531-5.503906-3.066406-10.582031-8.566406-11.351562-2.15625-.304688-53.125-6.785157-84.027344 44.101562-2.882812 4.75-1.371094 10.933594 3.375 13.816406 1.632812.988282 3.433594 1.460938 5.210938 1.460938 3.398437 0 6.714843-1.722656 8.605468-4.835938zm0 0"/><path d="m161.070312 101.917969-.300781.191406c-4.660156 3.023437-5.984375 9.25-2.964843 13.910156 1.925781 2.96875 5.152343 4.585938 8.449218 4.585938 1.875 0 3.769532-.523438 5.460938-1.621094l.296875-.191406c4.660156-3.023438 5.988281-9.25 2.964843-13.910157-3.019531-4.65625-9.246093-5.984374-13.90625-2.964843zm0 0"/></svg>