<?xml version="1.0" encoding="iso-8859-1"?>
<!-- Generator: Adobe Illustrator 19.0.0, SVG Export Plug-In . SVG Version: 6.00 Build 0)  -->
<svg version="1.1" id="Capa_1" xmlns="http://www.w3.org/2000/svg" xmlns:xlink="http://www.w3.org/1999/xlink" x="0px" y="0px"
	 viewBox="0 0 512 512" style="enable-background:new 0 0 512 512;" xml:space="preserve">
<path style="fill:#30AA5B;" d="M118.184,351.703c-2.319,18.804,2.759,37.063,15.698,50.001
	c24.974,24.974,69.768,20.673,100.05-9.609c11.218-11.218,18.044-28.971,22.019-49.012c3.975,20.048,10.8,37.804,22.022,49.025
	c30.281,30.281,75.074,34.583,100.049,9.609c12.939-12.939,18.017-31.198,15.698-50.001c18.804,2.319,37.063-2.759,50.001-15.698
	c24.974-24.974,20.673-69.768-9.609-100.049c-11.218-11.218-28.971-18.044-49.012-22.019c20.048-3.975,37.804-10.8,49.025-22.022
	c30.281-30.282,34.583-75.074,9.609-100.05c-12.939-12.939-31.198-18.017-50.001-15.698c2.319-18.804-2.759-37.063-15.698-50.002
	C353.06,1.205,308.267,5.506,277.985,35.788c-11.218,11.218-18.044,28.971-22.019,49.012c-3.975-20.048-10.8-37.804-22.022-49.025
	c-30.282-30.28-75.074-34.582-100.05-9.608c-12.939,12.939-18.017,31.198-15.698,50.001c-18.804-2.319-37.063,2.759-50.002,15.698
	c-24.974,24.974-20.673,69.768,9.609,100.05c11.218,11.218,28.971,18.044,49.012,22.019c-20.048,3.975-37.805,10.8-49.025,22.022
	c-30.281,30.281-34.583,75.074-9.609,100.049C81.121,348.944,99.379,354.022,118.184,351.703z"/>
<path d="M441.183,228.898c-5.814-5.814-13.285-10.804-22.353-14.945c9.073-4.142,16.549-9.135,22.365-14.951
	c16.284-16.283,26.373-36.928,28.41-58.131c2.105-21.924-4.571-41.833-18.799-56.062c-11.999-12-28.532-18.702-46.561-19.139
	c-0.438-18.027-7.142-34.563-19.139-46.561c-28.834-28.833-80.061-24.524-114.193,9.609c-5.813,5.813-10.804,13.286-14.944,22.353
	c-4.142-9.073-9.135-16.549-14.951-22.366c-34.133-34.133-85.36-38.443-114.193-9.609c-11.999,11.998-18.701,28.534-19.139,46.561
	c-18.027,0.438-34.563,7.142-46.561,19.139c-28.834,28.835-24.523,80.061,9.608,114.193c5.814,5.814,13.286,10.804,22.353,14.945
	c-9.073,4.142-16.549,9.135-22.365,14.951c-34.132,34.132-38.443,85.36-9.609,114.193c11.998,11.999,28.532,18.701,46.561,19.138
	c0.438,18.027,7.142,34.563,19.138,46.561c12.83,12.83,30.087,19.097,48.304,19.095c22.726-0.001,46.944-9.759,65.889-28.705
	c3.427-3.427,6.562-7.448,9.411-12.016C267.302,458.64,331.64,512,408.213,512c5.524,0,10.001-4.478,10.001-10.001
	c0-5.524-4.478-10.001-10.001-10.001c-58.837,0-109.438-35.938-131.006-87.015c17.847,15.131,39.305,22.904,59.582,22.904
	c18.214,0,35.475-6.268,48.303-19.095c11.998-11.999,18.7-28.534,19.139-46.561c18.026-0.438,34.562-7.142,46.561-19.139
	c14.229-14.23,20.906-34.139,18.799-56.063C467.555,265.826,457.466,245.18,441.183,228.898z M436.648,328.947
	c-10.325,10.325-25.137,14.889-41.705,12.844c-3.061-0.377-6.119,0.676-8.296,2.854s-3.23,5.239-2.854,8.296
	c2.043,16.568-2.518,31.38-12.844,41.706c-21.034,21.034-59.571,16.724-85.905-9.609c-8.624-8.624-15.042-23.092-19.092-42.986
	v-39.587c0-5.524-4.478-10.001-10.001-10.001c-5.524,0-10.001,4.478-10.001,10.001v39.586
	c-4.051,19.888-10.467,34.352-19.089,42.973c-26.332,26.332-64.871,30.644-85.905,9.608c-10.325-10.325-14.887-25.136-12.844-41.705
	c0.377-3.057-0.676-6.118-2.854-8.296s-5.242-3.229-8.295-2.854c-16.572,2.041-31.381-2.518-41.705-12.844
	c-21.036-21.035-16.725-59.571,9.608-85.905c8.624-8.624,23.091-15.042,42.984-19.092h70.093c5.524,0,10.001-4.478,10.001-10.001
	c0-5.524-4.478-10.001-10.001-10.001h-70.088c-19.889-4.05-34.353-10.467-42.975-19.089c-26.333-26.334-30.644-64.871-9.608-85.906
	c10.326-10.326,25.14-14.887,41.705-12.844c3.063,0.376,6.119-0.676,8.296-2.854c2.178-2.178,3.231-5.239,2.854-8.296
	c-2.042-16.569,2.518-31.381,12.845-41.706c21.036-21.036,59.572-16.723,85.905,9.609c8.624,8.624,15.042,23.092,19.092,42.986
	v59.11c0,5.524,4.478,10.001,10.001,10.001c5.524,0,10.001-4.478,10.001-10.001V85.835c4.051-19.888,10.467-34.352,19.089-42.973
	c26.334-26.333,64.87-30.644,85.906-9.609c10.325,10.325,14.887,25.136,12.844,41.706c-0.377,3.057,0.676,6.118,2.854,8.296
	c2.178,2.179,5.244,3.231,8.296,2.854c16.566-2.046,31.379,2.518,41.705,12.844c9.928,9.928,14.557,24.136,13.033,40.006
	c-1.593,16.59-9.634,32.891-22.642,45.899c-8.623,8.623-23.09,15.041-42.984,19.091H324.96c-5.524,0-10.001,4.478-10.001,10.001
	c0,5.524,4.478,10.001,10.001,10.001h59.109c19.889,4.051,34.351,10.467,42.973,19.089c13.008,13.007,21.049,29.308,22.642,45.899
	C451.205,304.811,446.577,319.018,436.648,328.947z"/>
<path d="M255.95,261.959c-5.524,0-10.001,4.478-10.001,10.001v0.083c0,5.524,4.478,9.959,10.001,9.959s10.001-4.519,10.001-10.042
	S261.474,261.959,255.95,261.959z"/>
<g>
</g>
<g>
</g>
<g>
</g>
<g>
</g>
<g>
</g>
<g>
</g>
<g>
</g>
<g>
</g>
<g>
</g>
<g>
</g>
<g>
</g>
<g>
</g>
<g>
</g>
<g>
</g>
<g>
</g>
</svg>
