<?xml version="1.0" encoding="UTF-8" standalone="no"?>
<!-- Created with Inkscape (http://www.inkscape.org/) -->

<svg
   xmlns:dc="http://purl.org/dc/elements/1.1/"
   xmlns:cc="http://creativecommons.org/ns#"
   xmlns:rdf="http://www.w3.org/1999/02/22-rdf-syntax-ns#"
   xmlns:svg="http://www.w3.org/2000/svg"
   xmlns="http://www.w3.org/2000/svg"
   xmlns:sodipodi="http://sodipodi.sourceforge.net/DTD/sodipodi-0.dtd"
   xmlns:inkscape="http://www.inkscape.org/namespaces/inkscape"
   width="100.00011mm"
   height="99.999573mm"
   viewBox="0 0 100.00011 99.999573"
   version="1.1"
   id="svg8"
   inkscape:version="0.92.3 (2405546, 2018-03-11)"
   sodipodi:docname="cross.svg">
  <defs
     id="defs2" />
  <sodipodi:namedview
     id="base"
     pagecolor="#ffffff"
     bordercolor="#666666"
     borderopacity="1.0"
     inkscape:pageopacity="0.0"
     inkscape:pageshadow="2"
     inkscape:zoom="0.98994949"
     inkscape:cx="197.9575"
     inkscape:cy="160.24246"
     inkscape:document-units="mm"
     inkscape:current-layer="layer1"
     showgrid="false"
     inkscape:window-width="1920"
     inkscape:window-height="1018"
     inkscape:window-x="-8"
     inkscape:window-y="-8"
     inkscape:window-maximized="1" />
  <metadata
     id="metadata5">
    <rdf:RDF>
      <cc:Work
         rdf:about="">
        <dc:format>image/svg+xml</dc:format>
        <dc:type
           rdf:resource="http://purl.org/dc/dcmitype/StillImage" />
        <dc:title></dc:title>
      </cc:Work>
    </rdf:RDF>
  </metadata>
  <g
     inkscape:label="Ebene 1"
     inkscape:groupmode="layer"
     id="layer1"
     transform="translate(-54.677262,-46.465694)">
    <path
       id="rect830"
       style="fill:#000000;fill-opacity:1;stroke-width:0.09696712"
       d="m 134.72926,122.98196 -3.53554,3.53553 -56.568543,-56.568535 3.535534,-3.535534 z m -3.53554,-56.568541 3.53554,3.535534 -56.568553,56.568537 -3.535534,-3.53553 z m -26.5164,-19.947725 c -27.700008,-3e-6 -50.000056,22.29953 -50.000058,49.999527 2e-6,27.699999 22.30005,50.000049 50.000058,50.000049 27.7,0 50.00005,-22.30005 50.00005,-50.000049 0,-27.699999 -22.30005,-49.999527 -50.00005,-49.999527 z m 0,4.999696 c 1.55813,-10e-7 3.09723,0.07842 4.61367,0.23151 1.51644,0.15308 3.00992,0.380805 4.47725,0.679543 1.46733,0.298737 2.90831,0.668386 4.31911,1.105356 1.4108,0.43697 2.79142,0.941178 4.13825,1.508957 1.34684,0.56777 2.66024,1.199173 3.93568,1.890321 1.27545,0.691153 2.51322,1.442374 3.70985,2.249474 1.19663,0.807097 2.35194,1.670271 3.46232,2.585888 1.11039,0.915626 2.17585,1.883365 3.19257,2.900085 1.01672,1.016714 1.98446,2.082182 2.90008,3.192566 0.91563,1.110391 1.77931,2.265688 2.58641,3.462325 0.8071,1.196629 1.55781,2.434917 2.24896,3.710368 0.69115,1.275444 1.32255,2.58832 1.89032,3.935161 0.56778,1.346833 1.07198,2.727447 1.50895,4.138245 0.43697,1.410799 0.80662,2.851784 1.10536,4.319115 0.29874,1.467339 0.52646,2.960803 0.67954,4.477244 0.15309,1.516449 0.23151,3.055546 0.23152,4.613683 0,1.558125 -0.0784,3.097742 -0.23151,4.614179 -0.15308,1.51644 -0.38081,3.00991 -0.67955,4.47725 -0.29874,1.46733 -0.66838,2.90832 -1.10535,4.31911 -0.43698,1.4108 -0.94119,2.79142 -1.50896,4.13825 -0.56777,1.34684 -1.19917,2.65972 -1.89032,3.93516 -0.69115,1.27545 -1.44186,2.51374 -2.24896,3.71037 -0.8071,1.19663 -1.67078,2.35193 -2.5864,3.46232 -0.91563,1.11039 -1.88337,2.17585 -2.90009,3.19257 -1.01671,1.01672 -2.08218,1.98446 -3.19257,2.90008 -1.11038,0.91563 -2.26568,1.77879 -3.46232,2.58589 -1.19663,0.8071 -2.43441,1.55832 -3.70985,2.24947 -1.27545,0.69115 -2.58884,1.32256 -3.93568,1.89033 -1.34683,0.56777 -2.72744,1.07198 -4.13824,1.50895 -1.4108,0.43697 -2.85179,0.80662 -4.31912,1.10536 -1.46733,0.29874 -2.9608,0.52646 -4.47725,0.67955 -1.51644,0.15308 -3.05555,0.2315 -4.61367,0.23151 -1.55813,-10e-6 -3.09724,-0.0784 -4.61368,-0.23151 -1.51644,-0.15309 -3.010425,-0.38081 -4.477764,-0.67955 -1.467331,-0.29874 -2.908316,-0.66839 -4.319114,-1.10536 -1.410798,-0.43697 -2.791412,-0.94118 -4.138246,-1.50895 -1.346841,-0.56777 -2.659717,-1.19917 -3.93516,-1.89032 -1.275452,-0.69116 -2.513222,-1.44238 -3.709852,-2.24948 -1.196637,-0.8071 -2.351937,-1.67027 -3.462321,-2.58589 -1.110391,-0.91562 -2.175853,-1.88336 -3.192573,-2.90008 -1.01672,-1.01672 -1.984976,-2.08218 -2.900598,-3.19257 -0.915618,-1.11038 -1.77879,-2.26569 -2.585889,-3.46232 -0.807099,-1.19663 -1.557804,-2.43492 -2.248958,-3.71037 -0.691147,-1.27544 -1.322547,-2.58832 -1.890323,-3.93516 -0.567773,-1.34683 -1.071981,-2.72745 -1.508952,-4.13824 -0.43697,-1.4108 -0.806617,-2.85179 -1.105355,-4.31912 -0.298746,-1.46734 -0.526983,-2.96081 -0.680063,-4.47725 -0.15309,-1.516437 -0.231514,-3.056054 -0.231513,-4.614189 1e-6,-1.558124 0.07843,-3.097223 0.231514,-4.613667 0.153077,-1.516449 0.381316,-3.009914 0.680058,-4.477248 0.298741,-1.467335 0.668387,-2.908318 1.105359,-4.319116 0.436969,-1.410798 0.941178,-2.791412 1.508952,-4.13825 0.567772,-1.346835 1.199174,-2.659713 1.890324,-3.935159 0.69115,-1.275447 1.441858,-2.513737 2.248958,-3.710368 0.807101,-1.196631 1.670267,-2.351934 2.585889,-3.462322 0.915623,-1.110387 1.883879,-2.175851 2.900598,-3.19257 1.016717,-1.016717 2.08218,-1.984458 3.192569,-2.90008 1.11039,-0.915622 2.26569,-1.778791 3.462321,-2.585889 1.196632,-0.807101 2.434406,-1.558324 3.709853,-2.249474 1.275445,-0.69115 2.588323,-1.322551 3.935158,-1.890324 1.346838,-0.567774 2.727452,-1.071983 4.138251,-1.508953 1.4108,-0.436967 2.851778,-0.806622 4.319118,-1.105355 1.467335,-0.298741 2.961318,-0.526466 4.477759,-0.679548 1.51644,-0.153085 3.05556,-0.231508 4.61368,-0.231508 z"
       inkscape:connector-curvature="0" />
  </g>
</svg>
