<?xml version="1.0" encoding="iso-8859-1"?>
<!-- Generator: Adobe Illustrator 19.0.0, SVG Export Plug-In . SVG Version: 6.00 Build 0)  -->
<svg version="1.1" id="Capa_1" xmlns="http://www.w3.org/2000/svg" xmlns:xlink="http://www.w3.org/1999/xlink" x="0px" y="0px"
	 viewBox="0 0 512 512" style="enable-background:new 0 0 512 512;" xml:space="preserve">
<path style="fill:#FFE451;" d="M469.079,413.694c3.698,15.117-0.13,31.664-11.938,43.472
	c-11.809,11.809-28.354,15.637-43.472,11.938c-91.616,61.121-226.899,42.11-319.878-50.869
	C0.812,325.258-18.199,189.974,42.922,98.358c-3.699-15.118,0.129-31.663,11.938-43.472s28.354-15.637,43.473-11.938
	c91.616-61.121,226.899-42.11,319.878,50.869C511.189,186.795,530.199,322.077,469.079,413.694z"/>
<path style="fill:#FFC751;" d="M469.079,413.694c1.283-1.924,2.323-3.975,3.536-5.938c-91.45,56.544-222.915,36.622-313.941-54.404
	s-110.948-222.49-54.404-313.94c-1.961,1.214-4.014,2.252-5.938,3.536c-15.118-3.699-31.664,0.129-43.473,11.938
	S39.223,83.241,42.922,98.358c-61.121,91.616-42.11,226.899,50.869,319.878s228.262,111.989,319.878,50.869
	c15.117,3.699,31.663-0.129,43.472-11.938C468.949,445.357,472.777,428.812,469.079,413.694z"/>
<g>
	<path style="fill:#231F20;" d="M292.687,512c-15.52,0-31.323-1.437-47.226-4.347l2.723-14.887
		c58.897,10.774,116.177,0.136,161.284-29.957l2.767-1.845l3.231,0.79c13.276,3.246,26.853-0.468,36.322-9.939
		c9.471-9.47,13.186-23.049,9.94-36.323l-0.79-3.231l1.845-2.767c60.38-90.507,39.383-221.018-49.925-310.327
		c-32.4-32.401-71.601-56.856-113.363-70.718l4.769-14.364c43.985,14.602,85.237,40.322,119.295,74.381
		c45.763,45.763,76.075,104.238,85.35,164.652c9.037,58.869-2.246,116.291-31.776,162.09c3.158,17.385-2.194,34.858-14.645,47.309
		c-12.45,12.452-29.92,17.8-47.308,14.644C379.597,500.113,337.311,512,292.687,512z"/>
	<path style="fill:#231F20;" d="M217.163,500.917c-47.612-13.99-92.124-40.73-128.723-77.33
		C42.676,377.822,12.364,319.348,3.09,258.935c-9.037-58.869,2.246-116.291,31.777-162.09c-3.158-17.385,2.193-34.857,14.643-47.309
		c12.451-12.45,29.926-17.803,47.308-14.644C147.493,2.192,210.973-7.97,275.975,6.297l-3.246,14.783
		C210.631,7.448,150.186,17.45,102.531,49.242l-2.767,1.845l-3.231-0.79c-13.273-3.249-26.852,0.468-36.323,9.939
		c-9.47,9.47-13.185,23.049-9.938,36.323l0.79,3.231l-1.846,2.767c-60.38,90.506-39.384,221.017,49.924,310.327
		c34.814,34.813,77.1,60.233,122.288,73.511L217.163,500.917z"/>
</g>
<path style="fill:#FFFFFF;" d="M133.858,378.167c-41.076-41.076-66.839-92.649-72.538-145.216
	c-5.766-53.182,9.626-101.039,43.341-134.754l10.701,10.701c-63.237,63.237-50.139,179.229,29.198,258.566L133.858,378.167z"/>
<rect x="149.504" y="384.711" transform="matrix(-0.7071 -0.7071 0.7071 -0.7071 -6.4984 781.8653)" style="fill:#231F20;" width="18.353" height="15.134"/>
<rect x="441.479" y="248.46" transform="matrix(-0.7071 -0.7071 0.7071 -0.7071 588.2783 755.7271)" style="fill:#FFFFFF;" width="18.353" height="15.134"/>
<g>
	
		<rect x="409.03" y="228.986" transform="matrix(-0.7071 -0.7071 0.7071 -0.7071 546.6541 699.5388)" style="fill:#231F20;" width="18.353" height="15.134"/>
	
		<rect x="428.5" y="287.383" transform="matrix(-0.7071 -0.7071 0.7071 -0.7071 538.5997 812.9953)" style="fill:#231F20;" width="18.353" height="15.134"/>
</g>
<g>
</g>
<g>
</g>
<g>
</g>
<g>
</g>
<g>
</g>
<g>
</g>
<g>
</g>
<g>
</g>
<g>
</g>
<g>
</g>
<g>
</g>
<g>
</g>
<g>
</g>
<g>
</g>
<g>
</g>
</svg>
