<?xml version="1.0" encoding="iso-8859-1"?>
<!-- Generator: Adobe Illustrator 19.0.0, SVG Export Plug-In . SVG Version: 6.00 Build 0)  -->
<svg version="1.1" id="Capa_1" xmlns="http://www.w3.org/2000/svg" xmlns:xlink="http://www.w3.org/1999/xlink" x="0px" y="0px"
	 viewBox="0 0 511.999 511.999" style="enable-background:new 0 0 511.999 511.999;" xml:space="preserve">
<path style="fill:#AA6100;" d="M306.267,79.236c-4.212,0-7.625-3.414-7.625-7.625v-41.13c-12.106,12.723-32.436,27.903-63.29,33.112
	c-4.156,0.7-8.088-2.097-8.789-6.25c-0.7-4.152,2.097-8.087,6.249-8.788c47.5-8.02,65.897-42.917,66.657-44.399
	c1.608-3.134,5.161-4.77,8.581-3.944c3.423,0.827,5.841,3.879,5.841,7.4v63.998C313.892,75.822,310.479,79.236,306.267,79.236z"/>
<path style="fill:#6DC82A;" d="M254.212,54.797c-1.596,3.996-3.335,7.93-5.236,11.794c-15.677,32.148-41.267,59.435-72.49,76.902
	c-22.713,12.709-49.614,20.171-76.546,21.971c-13.705,0.915-27.41,0.366-40.566-1.698c-2.237-0.346-3.172-3.081-1.606-4.728
	c3.264-3.426,6.283-7.086,9.038-10.94c17.334-24.299,26.169-56.66,48.862-77.98c16.562-15.565,37.719-24.766,60.076-28.06
	c17.924-2.643,36.346-1.688,54.118,1.657l22.591,7.371C253.999,51.584,254.812,53.292,254.212,54.797z"/>
<path style="fill:#7ED63E;" d="M248.976,66.59c-15.677,32.148-41.267,59.435-72.49,76.902
	c-22.713,12.709-49.614,20.171-76.546,21.971c14.447-23.231,23.628-51.627,44.195-70.944c16.562-15.565,37.719-24.766,60.076-28.06
	C219.015,64.272,234.153,64.547,248.976,66.59z"/>
<path style="fill:#EEBF00;" d="M455.007,291.603c0,75.834-35.564,141.177-86.774,170.864c-10.553,6.131-18.687,15.545-24.075,26.505
	c-3.985,8.113-10.736,14.732-19.083,18.758c-5.653,2.735-12.038,4.27-18.809,4.27c-16.745,0-31.202-9.425-37.892-23.028
	c-5.388-10.96-13.522-20.374-24.075-26.505c-51.21-29.687-86.774-95.029-86.774-170.864c0-75.987,35.696-141.431,87.059-171.047
	c10.441-6.019,18.514-15.301,23.892-26.098c6.72-13.512,21.117-22.845,37.79-22.845c6.761,0,13.156,1.535,18.809,4.26
	c8.286,4.006,14.986,10.553,18.981,18.585c5.378,10.797,13.451,20.08,23.892,26.098
	C419.312,150.172,455.007,215.616,455.007,291.603z"/>
<path style="fill:#FFD422;" d="M455.007,291.603c0,75.834-35.564,141.177-86.774,170.864c-10.553,6.131-18.687,15.545-24.075,26.505
	c-3.985,8.113-10.736,14.732-19.083,18.758c-8.347-4.026-15.098-10.645-19.083-18.758c-5.388-10.96-13.522-20.374-24.075-26.505
	c-51.21-29.687-86.774-95.029-86.774-170.864c0-75.987,35.696-141.431,87.059-171.047c10.441-6.019,18.514-15.301,23.892-26.098
	c3.996-8.032,10.695-14.579,18.982-18.585c8.286,4.006,14.986,10.553,18.981,18.585c5.378,10.797,13.451,20.08,23.892,26.098
	C419.312,150.172,455.007,215.616,455.007,291.603z"/>
<g>
</g>
<g>
</g>
<g>
</g>
<g>
</g>
<g>
</g>
<g>
</g>
<g>
</g>
<g>
</g>
<g>
</g>
<g>
</g>
<g>
</g>
<g>
</g>
<g>
</g>
<g>
</g>
<g>
</g>
</svg>
