<?xml version="1.0" encoding="iso-8859-1"?>
<!-- Generator: Adobe Illustrator 19.0.0, SVG Export Plug-In . SVG Version: 6.00 Build 0)  -->
<svg version="1.1" id="Capa_1" xmlns="http://www.w3.org/2000/svg" xmlns:xlink="http://www.w3.org/1999/xlink" x="0px" y="0px"
	 viewBox="0 0 512 512" style="enable-background:new 0 0 512 512;" xml:space="preserve">
<path style="fill:#5C913B;" d="M162.013,41.693c92.048-18.111,120.075,17.969,165.558,1.193s1.321,40.058-10.583,49.831
	c-11.932,9.787-115.628,68.311-160.601,46.848C111.401,118.101,111.159,51.708,162.013,41.693"/>
<path style="fill:#77B255;" d="M213.089,221.543c-4.318,0-8.594-1.96-11.379-5.682c-9.759-13.012-18.58-27.771-27.913-43.411
	C141.581,118.543,105.061,57.419,11.123,36.538c-7.656-1.705-12.486-9.29-10.781-16.947S9.632,7.119,17.288,8.81
	c105.884,23.524,147.476,93.142,180.9,149.081c8.934,14.972,17.386,29.105,26.251,40.925c4.702,6.278,3.437,15.185-2.841,19.887
	C219.041,220.62,216.044,221.543,213.089,221.543"/>
<path style="fill:#FFCC4D;" d="M487.228,442.206c0.028-0.241-0.043-0.398-0.043-0.611c39.404-75.783,37.615-214.679-47.53-299.823
	c-82.389-82.389-194.309-82.687-266.584-57.771c-22.416,8.721-41.422,0.938-54.192,13.708
	c-12.515,12.515-4.986,38.623-10.142,54.248c-45.015,73.894-48.368,185.019,38.168,271.555
	c70.485,70.485,148.271,97.176,283.815,68.922c0.028-0.028,0.071-0.015,0.114-0.028c16.321-3.097,41.905,7.443,50.669-1.335
	C496.93,475.659,485.892,457.59,487.228,442.206"/>
<path style="fill:#77B255;" d="M116.595,87.768c0,0-60.655-8.381-97.403,65.328c-36.763,73.695,8.267,129.605,4.105,179.721
	c-4.162,50.158,22.245,17.969,37.232-6.321c14.986-24.29,60.087-69.518,70.144-131.665
	C140.729,132.698,129.692,103.124,116.595,87.768"/>
<g>
</g>
<g>
</g>
<g>
</g>
<g>
</g>
<g>
</g>
<g>
</g>
<g>
</g>
<g>
</g>
<g>
</g>
<g>
</g>
<g>
</g>
<g>
</g>
<g>
</g>
<g>
</g>
<g>
</g>
</svg>
