<?xml version="1.0" encoding="UTF-8" standalone="no"?>
<!-- Created with Inkscape (http://www.inkscape.org/) -->

<svg
   xmlns:dc="http://purl.org/dc/elements/1.1/"
   xmlns:cc="http://creativecommons.org/ns#"
   xmlns:rdf="http://www.w3.org/1999/02/22-rdf-syntax-ns#"
   xmlns:svg="http://www.w3.org/2000/svg"
   xmlns="http://www.w3.org/2000/svg"
   xmlns:sodipodi="http://sodipodi.sourceforge.net/DTD/sodipodi-0.dtd"
   xmlns:inkscape="http://www.inkscape.org/namespaces/inkscape"
   width="240mm"
   height="240.00803mm"
   viewBox="0 0 240 240.00803"
   version="1.1"
   id="svg8"
   inkscape:version="0.92.3 (2405546, 2018-03-11)"
   sodipodi:docname="waS-border3.svg">
  <title
     id="title905">waS-border3</title>
  <defs
     id="defs2" />
  <sodipodi:namedview
     id="base"
     pagecolor="#ffffff"
     bordercolor="#666666"
     borderopacity="1.0"
     inkscape:pageopacity="0.0"
     inkscape:pageshadow="2"
     inkscape:zoom="0.70710678"
     inkscape:cx="205.96859"
     inkscape:cy="408.41438"
     inkscape:document-units="mm"
     inkscape:current-layer="layer1"
     showgrid="false"
     inkscape:snap-bbox="true"
     inkscape:bbox-paths="true"
     inkscape:bbox-nodes="true"
     inkscape:window-width="1920"
     inkscape:window-height="1018"
     inkscape:window-x="-8"
     inkscape:window-y="-8"
     inkscape:window-maximized="1"
     inkscape:snap-bbox-edge-midpoints="true"
     inkscape:snap-bbox-midpoints="true" />
  <metadata
     id="metadata5">
    <rdf:RDF>
      <cc:Work
         rdf:about="">
        <dc:format>image/svg+xml</dc:format>
        <dc:type
           rdf:resource="http://purl.org/dc/dcmitype/StillImage" />
        <dc:title>waS-border3</dc:title>
      </cc:Work>
    </rdf:RDF>
  </metadata>
  <g
     inkscape:label="Ebene 1"
     inkscape:groupmode="layer"
     id="layer1"
     transform="translate(-7.7508163,-9.4179802)">
    <rect
       style="fill:#008000;fill-opacity:1;stroke-width:0.2004012"
       id="rect817"
       width="50"
       height="50"
       x="7.7508163"
       y="9.4179878"
       rx="25"
       ry="25" />
    <rect
       ry="17.5"
       rx="17.5"
       y="16.91798"
       x="57.750824"
       height="35"
       width="35"
       id="rect819"
       style="fill:#ffa500;fill-opacity:1;stroke-width:0.14028086" />
    <rect
       style="fill:#0000ff;fill-opacity:1;stroke-width:0.14028086"
       id="rect825"
       width="35"
       height="35"
       x="92.750816"
       y="16.91798"
       rx="17.5"
       ry="17.5" />
    <rect
       ry="17.5"
       rx="17.5"
       y="16.91798"
       x="127.75082"
       height="35"
       width="35"
       id="rect827"
       style="fill:#ff0000;fill-opacity:1;stroke-width:0.14028086" />
    <rect
       style="fill:#008000;fill-opacity:1;stroke-width:0.14028086"
       id="rect829"
       width="35"
       height="35"
       x="162.75082"
       y="16.91798"
       rx="17.5"
       ry="17.5" />
    <rect
       ry="25"
       rx="25"
       y="7.7508163"
       x="199.42601"
       height="50"
       width="50"
       id="rect833"
       style="fill:#ff0000;fill-opacity:1;stroke-width:0.2004012"
       transform="matrix(0,1,1,0,0,0)" />
    <rect
       style="fill:#0000ff;fill-opacity:1;stroke-width:0.14028086"
       id="rect835"
       width="35"
       height="35"
       x="206.92601"
       y="57.750809"
       rx="17.5"
       ry="17.5"
       transform="matrix(0,1,1,0,0,0)" />
    <rect
       ry="17.5"
       rx="17.5"
       y="92.750816"
       x="206.92601"
       height="35"
       width="35"
       id="rect837"
       style="fill:#ffa500;fill-opacity:1;stroke-width:0.14028086"
       transform="matrix(0,1,1,0,0,0)" />
    <rect
       style="fill:#008000;fill-opacity:1;stroke-width:0.14028086"
       id="rect839"
       width="35"
       height="35"
       x="206.92601"
       y="127.75082"
       rx="17.5"
       ry="17.5"
       transform="matrix(0,1,1,0,0,0)" />
    <rect
       ry="17.5"
       rx="17.5"
       y="162.75082"
       x="206.92601"
       height="35"
       width="35"
       id="rect841"
       style="fill:#ff0000;fill-opacity:1;stroke-width:0.14028086"
       transform="matrix(0,1,1,0,0,0)" />
    <rect
       ry="17.5"
       rx="17.5"
       y="59.417988"
       x="15.250816"
       height="35"
       width="35"
       id="rect845"
       style="fill:#ff0000;fill-opacity:1;stroke-width:0.14028086" />
    <rect
       style="fill:#0000ff;fill-opacity:1;stroke-width:0.14028086"
       id="rect847"
       width="35"
       height="35"
       x="15.250816"
       y="94.417984"
       rx="17.5"
       ry="17.5" />
    <rect
       ry="17.5"
       rx="17.5"
       y="129.41797"
       x="15.250816"
       height="35"
       width="35"
       id="rect849"
       style="fill:#ffa500;fill-opacity:1;stroke-width:0.14028086" />
    <rect
       style="fill:#008000;fill-opacity:1;stroke-width:0.14028086"
       id="rect851"
       width="35"
       height="35"
       x="15.250816"
       y="164.41798"
       rx="17.5"
       ry="17.5" />
    <rect
       transform="matrix(0,1,1,0,0,0)"
       style="fill:#0000ff;fill-opacity:1;stroke-width:0.2004012"
       id="rect871"
       width="50"
       height="50"
       x="199.42601"
       y="197.75082"
       rx="25"
       ry="25" />
    <rect
       style="fill:#0000ff;fill-opacity:1;stroke-width:0.14028086"
       id="rect873"
       width="35"
       height="35"
       x="205.25082"
       y="59.41798"
       rx="17.5"
       ry="17.5" />
    <rect
       ry="17.5"
       rx="17.5"
       y="94.417976"
       x="205.25082"
       height="35"
       width="35"
       id="rect875"
       style="fill:#ff0000;fill-opacity:1;stroke-width:0.14028086" />
    <rect
       style="fill:#008000;fill-opacity:1;stroke-width:0.14028086"
       id="rect877"
       width="35"
       height="35"
       x="205.25082"
       y="129.41797"
       rx="17.5"
       ry="17.5" />
    <rect
       ry="17.5"
       rx="17.5"
       y="164.41798"
       x="205.25082"
       height="35"
       width="35"
       id="rect879"
       style="fill:#ffa500;fill-opacity:1;stroke-width:0.14028086" />
    <rect
       style="fill:#ffa500;fill-opacity:1;stroke-width:0.2004012"
       id="rect881"
       width="50"
       height="50"
       x="197.75082"
       y="9.4179802"
       rx="25"
       ry="25" />
  </g>
</svg>
